<?xml version="1.0" encoding="utf-8"?>
<!-- Generator: Adobe Illustrator 23.0.2, SVG Export Plug-In . SVG Version: 6.00 Build 0)  -->
<svg version="1.1" id="Front" xmlns="http://www.w3.org/2000/svg" xmlns:xlink="http://www.w3.org/1999/xlink" x="0px" y="0px"
	 viewBox="0 0 104.2 86.2" style="enable-background:new 0 0 104.2 86.2;" xml:space="preserve">
<style type="text/css">
	
		.st0{fill:none;stroke:#EBECEE;stroke-width:1.1292;stroke-linecap:round;stroke-linejoin:round;stroke-miterlimit:10;stroke-dasharray:13.5501,6.775;}
	.st1{fill:#EBECEE;}
	.st2{opacity:0.21;fill:#282828;}
</style>
<line class="st0" x1="25.7" y1="75" x2="79.5" y2="75"/>
<g>
	<g>
		<path class="st1" d="M38.5,49.9l1.7-2.1c0.1-0.2,0.2-0.5,0.1-0.7c-0.1-0.2-0.3-0.4-0.6-0.4h-3.6c-7.2-18.2-9.7-24.2-10.6-26.2
			c-0.3,0.3-0.7,0.5-1.1,0.6c0,0,0,0-0.1,0c-0.2,0-0.4,0.1-0.5,0.1c-0.2,0-0.3,0-0.5,0h0c-0.1,0-0.2,0-0.3-0.1
			c-0.4-0.1-0.7-0.3-0.9-0.5L11.8,46.7H7.9c-0.3,0-0.5,0.1-0.6,0.4c-0.1,0.2-0.1,0.5,0.1,0.7l1.7,2.1c3.6,4.5,8.9,7.1,14.7,7.1
			C29.6,57,34.9,54.4,38.5,49.9z M24.4,21.2c1.4,3.3,6.6,16.2,10.3,25.5H22.2L24.4,21.2z M23,21.9l-2.1,24.7h-7.7L23,21.9z"/>
		<path class="st1" d="M55.9,64.3c-0.2,0-0.4-0.2-0.5-0.5l-2.3-44.6l0,0h4.2h16.4v1c0,1.1,0.9,2,2,2c1.1,0,2-0.9,2-2v-1.7
			c0-1.4,1.2-2.6,2.6-2.6c1.4,0,2.6,1.2,2.6,2.6c0,0.4,0.3,0.7,0.7,0.7c0.4,0,0.7-0.3,0.7-0.7c0-2.2-1.8-3.9-3.9-3.9
			s-3.9,1.8-3.9,3.9v1.7c0,0.4-0.3,0.7-0.7,0.7s-0.7-0.3-0.7-0.7v-1.7c0-0.4-0.3-0.7-0.7-0.7H57.4h-4.3L53,14.5
			c1.5-0.4,2.6-1.7,2.6-3.3c0-1.9-1.5-3.4-3.4-3.4s-3.4,1.5-3.4,3.4c0,1.6,1.1,2.9,2.6,3.3L51.2,18h-4.3H29.8
			c-0.4,0-0.7,0.3-0.7,0.7v1.7c0,0.4-0.3,0.7-0.7,0.7c-0.4,0-0.7-0.3-0.7-0.7v-1.7c0-2.2-1.8-3.9-3.9-3.9s-3.9,1.8-3.9,3.9
			c0,0.4,0.3,0.7,0.7,0.7c0.4,0,0.7-0.3,0.7-0.7c0-1.4,1.2-2.6,2.6-2.6c1.4,0,2.6,1.2,2.6,2.6v1.7c0,1.1,0.9,2,2,2c1.1,0,2-0.9,2-2
			v-1h16.4h4.2l0,0l-2.3,44.6c0,0.3-0.2,0.5-0.5,0.5c-7.3,0.8-13,3.7-15.5,8c-0.1,0.2-0.1,0.5,0,0.7c0.1,0.2,0.3,0.3,0.6,0.3h37.3
			c0.2,0,0.4-0.1,0.6-0.3c0.1-0.2,0.1-0.5,0-0.7C68.9,68,63.3,65.1,55.9,64.3z"/>
		<path class="st1" d="M22.9,19.4L22.9,19.4c0.1,0.1,0.1,0.1,0.2,0.2c0.1,0,0.1,0.1,0.2,0.1c0,0,0,0,0,0c0,0,0.1,0,0.1,0
			c0,0,0.1,0,0.1,0c0,0,0,0,0,0c0.1,0,0.1,0,0.1,0c0.1,0,0.1,0,0.2,0c0.1,0,0.2,0,0.3-0.1c0.1,0,0.2-0.1,0.3-0.2
			c0.1,0,0.1-0.1,0.1-0.1l0,0c0.1-0.1,0.1-0.2,0.2-0.3c0-0.1,0-0.1,0-0.2c0-0.1,0-0.2,0-0.3c0-0.6-0.5-1.2-1.2-1.2
			c-0.6,0-1.2,0.5-1.2,1.2c0,0.1,0,0.2,0,0.3c0,0.1,0,0.1,0,0.2C22.8,19.2,22.9,19.3,22.9,19.4z"/>
		<path class="st1" d="M97,47c-0.1-0.2-0.3-0.4-0.6-0.4h-3.9L82.2,20.5c-0.3,0.2-0.6,0.4-0.9,0.5c-0.1,0-0.2,0-0.3,0.1
			c-0.1,0-0.3,0-0.5,0c-0.2,0-0.4,0-0.5-0.1c0,0,0,0-0.1,0c-0.4-0.1-0.8-0.3-1.1-0.6c-0.9,2-3.4,8-10.6,26.2h-3.6
			c-0.3,0-0.5,0.1-0.6,0.4c-0.1,0.2-0.1,0.5,0.1,0.7l1.7,2.1c3.6,4.5,8.9,7.1,14.7,7.1c5.8,0,11.1-2.6,14.7-7.1l1.7-2.1
			C97.1,47.5,97.1,47.3,97,47z M91.1,46.7h-7.7l-2.1-24.7L91.1,46.7z M80,21.2l2.2,25.4H69.7C73.4,37.4,78.5,24.6,80,21.2z"/>
		<path class="st1" d="M79.4,18.7c0,0.3,0.1,0.6,0.3,0.8c0.1,0.1,0.3,0.3,0.4,0.3c0.1,0,0.2,0.1,0.3,0.1c0.1,0,0.1,0,0.2,0
			c0.1,0,0.1,0,0.1,0c0.1,0,0.2,0,0.3-0.1c0.2-0.1,0.3-0.2,0.5-0.3c0.2-0.2,0.3-0.5,0.3-0.8c0-0.6-0.5-1.2-1.2-1.2
			C79.9,17.5,79.4,18,79.4,18.7z"/>
	</g>
</g>
<path class="st2" d="M66,48h29.5c0,0-5,7.9-13.5,8.3c0,0,3.2-2.1,3.2-7h-17c-0.8,0-1.6-0.4-2-1.1L66,48z"/>
<path class="st2" d="M9.1,48h29.5c0,0-5,7.9-13.5,8.3c0,0,3.2-2.1,3.2-7H10.7c-0.5,0-0.9-0.2-1.2-0.7L9.1,48z"/>
<path class="st2" d="M70.3,72.3H40.8c0,0,0-0.3,0.4-0.5c0.4-0.1,18.7-0.1,18.7-0.1c0-3.3-4.7-5.7-5.8-6.2c-0.1-0.1-0.2-0.1-0.2-0.1
	V44l0.7,21C65.7,66,70.3,72.3,70.3,72.3z"/>
</svg>
